<mxfile host="Electron" modified="2023-04-20T22:45:20.196Z" agent="Mozilla/5.0 (Windows NT 10.0; Win64; x64) AppleWebKit/537.36 (KHTML, like Gecko) draw.io/21.2.1 Chrome/112.0.5615.87 Electron/24.1.2 Safari/537.36" etag="9yItTb1H0sv_tUL2xeLQ" version="21.2.1" type="device">
  <diagram name="Page-1" id="bWD9T5PZyZ2lGrPmeZSB">
    <mxGraphModel dx="861" dy="478" grid="1" gridSize="10" guides="1" tooltips="1" connect="1" arrows="1" fold="1" page="1" pageScale="1" pageWidth="850" pageHeight="1100" math="0" shadow="0">
      <root>
        <mxCell id="0" />
        <mxCell id="1" parent="0" />
        <mxCell id="7YN3MFbd8wUG7k_bTS1g-1" value="User" style="swimlane;fontStyle=0;childLayout=stackLayout;horizontal=1;startSize=26;fillColor=none;horizontalStack=0;resizeParent=1;resizeParentMax=0;resizeLast=0;collapsible=1;marginBottom=0;whiteSpace=wrap;html=1;" parent="1" vertex="1">
          <mxGeometry x="200" y="440" width="160" height="130" as="geometry" />
        </mxCell>
        <mxCell id="7YN3MFbd8wUG7k_bTS1g-2" value="+ username: String" style="text;strokeColor=none;fillColor=none;align=left;verticalAlign=top;spacingLeft=4;spacingRight=4;overflow=hidden;rotatable=0;points=[[0,0.5],[1,0.5]];portConstraint=eastwest;whiteSpace=wrap;html=1;" parent="7YN3MFbd8wUG7k_bTS1g-1" vertex="1">
          <mxGeometry y="26" width="160" height="26" as="geometry" />
        </mxCell>
        <mxCell id="7YN3MFbd8wUG7k_bTS1g-3" value="+ email: String" style="text;strokeColor=none;fillColor=none;align=left;verticalAlign=top;spacingLeft=4;spacingRight=4;overflow=hidden;rotatable=0;points=[[0,0.5],[1,0.5]];portConstraint=eastwest;whiteSpace=wrap;html=1;" parent="7YN3MFbd8wUG7k_bTS1g-1" vertex="1">
          <mxGeometry y="52" width="160" height="26" as="geometry" />
        </mxCell>
        <mxCell id="7YN3MFbd8wUG7k_bTS1g-4" value="+ password: String" style="text;strokeColor=none;fillColor=none;align=left;verticalAlign=top;spacingLeft=4;spacingRight=4;overflow=hidden;rotatable=0;points=[[0,0.5],[1,0.5]];portConstraint=eastwest;whiteSpace=wrap;html=1;" parent="7YN3MFbd8wUG7k_bTS1g-1" vertex="1">
          <mxGeometry y="78" width="160" height="26" as="geometry" />
        </mxCell>
        <mxCell id="7YN3MFbd8wUG7k_bTS1g-9" value="+ refreshToken: String" style="text;strokeColor=none;fillColor=none;align=left;verticalAlign=top;spacingLeft=4;spacingRight=4;overflow=hidden;rotatable=0;points=[[0,0.5],[1,0.5]];portConstraint=eastwest;whiteSpace=wrap;html=1;" parent="7YN3MFbd8wUG7k_bTS1g-1" vertex="1">
          <mxGeometry y="104" width="160" height="26" as="geometry" />
        </mxCell>
        <mxCell id="7YN3MFbd8wUG7k_bTS1g-5" value="categories" style="swimlane;fontStyle=0;childLayout=stackLayout;horizontal=1;startSize=26;fillColor=none;horizontalStack=0;resizeParent=1;resizeParentMax=0;resizeLast=0;collapsible=1;marginBottom=0;whiteSpace=wrap;html=1;" parent="1" vertex="1">
          <mxGeometry x="480" y="440" width="160" height="78" as="geometry" />
        </mxCell>
        <mxCell id="7YN3MFbd8wUG7k_bTS1g-6" value="+ type: String" style="text;strokeColor=none;fillColor=none;align=left;verticalAlign=top;spacingLeft=4;spacingRight=4;overflow=hidden;rotatable=0;points=[[0,0.5],[1,0.5]];portConstraint=eastwest;whiteSpace=wrap;html=1;" parent="7YN3MFbd8wUG7k_bTS1g-5" vertex="1">
          <mxGeometry y="26" width="160" height="26" as="geometry" />
        </mxCell>
        <mxCell id="7YN3MFbd8wUG7k_bTS1g-7" value="+ color: String" style="text;strokeColor=none;fillColor=none;align=left;verticalAlign=top;spacingLeft=4;spacingRight=4;overflow=hidden;rotatable=0;points=[[0,0.5],[1,0.5]];portConstraint=eastwest;whiteSpace=wrap;html=1;" parent="7YN3MFbd8wUG7k_bTS1g-5" vertex="1">
          <mxGeometry y="52" width="160" height="26" as="geometry" />
        </mxCell>
        <mxCell id="7YN3MFbd8wUG7k_bTS1g-16" value="transactions" style="swimlane;fontStyle=0;childLayout=stackLayout;horizontal=1;startSize=26;fillColor=none;horizontalStack=0;resizeParent=1;resizeParentMax=0;resizeLast=0;collapsible=1;marginBottom=0;whiteSpace=wrap;html=1;" parent="1" vertex="1">
          <mxGeometry x="760" y="438" width="160" height="130" as="geometry" />
        </mxCell>
        <mxCell id="7YN3MFbd8wUG7k_bTS1g-17" value="+ name: String" style="text;strokeColor=none;fillColor=none;align=left;verticalAlign=top;spacingLeft=4;spacingRight=4;overflow=hidden;rotatable=0;points=[[0,0.5],[1,0.5]];portConstraint=eastwest;whiteSpace=wrap;html=1;" parent="7YN3MFbd8wUG7k_bTS1g-16" vertex="1">
          <mxGeometry y="26" width="160" height="26" as="geometry" />
        </mxCell>
        <mxCell id="7YN3MFbd8wUG7k_bTS1g-18" value="+ type: String" style="text;strokeColor=none;fillColor=none;align=left;verticalAlign=top;spacingLeft=4;spacingRight=4;overflow=hidden;rotatable=0;points=[[0,0.5],[1,0.5]];portConstraint=eastwest;whiteSpace=wrap;html=1;" parent="7YN3MFbd8wUG7k_bTS1g-16" vertex="1">
          <mxGeometry y="52" width="160" height="26" as="geometry" />
        </mxCell>
        <mxCell id="7YN3MFbd8wUG7k_bTS1g-19" value="+ amount: Number" style="text;strokeColor=none;fillColor=none;align=left;verticalAlign=top;spacingLeft=4;spacingRight=4;overflow=hidden;rotatable=0;points=[[0,0.5],[1,0.5]];portConstraint=eastwest;whiteSpace=wrap;html=1;" parent="7YN3MFbd8wUG7k_bTS1g-16" vertex="1">
          <mxGeometry y="78" width="160" height="26" as="geometry" />
        </mxCell>
        <mxCell id="7YN3MFbd8wUG7k_bTS1g-20" value="+ date : Date" style="text;strokeColor=none;fillColor=none;align=left;verticalAlign=top;spacingLeft=4;spacingRight=4;overflow=hidden;rotatable=0;points=[[0,0.5],[1,0.5]];portConstraint=eastwest;whiteSpace=wrap;html=1;" parent="7YN3MFbd8wUG7k_bTS1g-16" vertex="1">
          <mxGeometry y="104" width="160" height="26" as="geometry" />
        </mxCell>
        <mxCell id="7YN3MFbd8wUG7k_bTS1g-21" value="User account data for sign up, log in and authentication. Account required to use app." style="shape=note;whiteSpace=wrap;html=1;backgroundOutline=1;darkOpacity=0.05;" parent="1" vertex="1">
          <mxGeometry x="200" y="300" width="160" height="100" as="geometry" />
        </mxCell>
        <mxCell id="7YN3MFbd8wUG7k_bTS1g-22" value="" style="endArrow=none;dashed=1;html=1;dashPattern=1 3;strokeWidth=2;rounded=0;" parent="1" source="7YN3MFbd8wUG7k_bTS1g-1" target="7YN3MFbd8wUG7k_bTS1g-21" edge="1">
          <mxGeometry width="50" height="50" relative="1" as="geometry">
            <mxPoint x="230" y="420" as="sourcePoint" />
            <mxPoint x="290" y="380" as="targetPoint" />
          </mxGeometry>
        </mxCell>
        <mxCell id="7YN3MFbd8wUG7k_bTS1g-23" value="category for transactions" style="shape=note;whiteSpace=wrap;html=1;backgroundOutline=1;darkOpacity=0.05;" parent="1" vertex="1">
          <mxGeometry x="480" y="300" width="160" height="100" as="geometry" />
        </mxCell>
        <mxCell id="7YN3MFbd8wUG7k_bTS1g-25" value="transaction" style="shape=note;whiteSpace=wrap;html=1;backgroundOutline=1;darkOpacity=0.05;" parent="1" vertex="1">
          <mxGeometry x="760" y="300" width="160" height="100" as="geometry" />
        </mxCell>
        <mxCell id="7YN3MFbd8wUG7k_bTS1g-33" value="" style="endArrow=none;dashed=1;html=1;dashPattern=1 3;strokeWidth=2;rounded=0;" parent="1" source="7YN3MFbd8wUG7k_bTS1g-5" target="7YN3MFbd8wUG7k_bTS1g-23" edge="1">
          <mxGeometry width="50" height="50" relative="1" as="geometry">
            <mxPoint x="559.5" y="440" as="sourcePoint" />
            <mxPoint x="559.5" y="360" as="targetPoint" />
          </mxGeometry>
        </mxCell>
        <mxCell id="7YN3MFbd8wUG7k_bTS1g-34" value="" style="endArrow=none;dashed=1;html=1;dashPattern=1 3;strokeWidth=2;rounded=0;" parent="1" source="7YN3MFbd8wUG7k_bTS1g-16" target="7YN3MFbd8wUG7k_bTS1g-25" edge="1">
          <mxGeometry width="50" height="50" relative="1" as="geometry">
            <mxPoint x="570" y="450" as="sourcePoint" />
            <mxPoint x="570" y="370" as="targetPoint" />
          </mxGeometry>
        </mxCell>
        <mxCell id="7YN3MFbd8wUG7k_bTS1g-46" value="" style="endArrow=none;html=1;rounded=0;" parent="1" source="7YN3MFbd8wUG7k_bTS1g-1" target="7YN3MFbd8wUG7k_bTS1g-5" edge="1">
          <mxGeometry width="50" height="50" relative="1" as="geometry">
            <mxPoint x="480" y="720" as="sourcePoint" />
            <mxPoint x="530" y="670" as="targetPoint" />
            <Array as="points">
              <mxPoint x="440" y="480" />
            </Array>
          </mxGeometry>
        </mxCell>
        <mxCell id="7YN3MFbd8wUG7k_bTS1g-47" value="adds" style="edgeLabel;html=1;align=center;verticalAlign=middle;resizable=0;points=[];" parent="7YN3MFbd8wUG7k_bTS1g-46" vertex="1" connectable="0">
          <mxGeometry x="-0.2691" y="2" relative="1" as="geometry">
            <mxPoint as="offset" />
          </mxGeometry>
        </mxCell>
        <mxCell id="7YN3MFbd8wUG7k_bTS1g-48" value="adds" style="endArrow=none;html=1;rounded=0;" parent="1" source="7YN3MFbd8wUG7k_bTS1g-1" target="7YN3MFbd8wUG7k_bTS1g-16" edge="1">
          <mxGeometry width="50" height="50" relative="1" as="geometry">
            <mxPoint x="450" y="650" as="sourcePoint" />
            <mxPoint x="500" y="600" as="targetPoint" />
            <Array as="points">
              <mxPoint x="400" y="560" />
              <mxPoint x="720" y="560" />
            </Array>
          </mxGeometry>
        </mxCell>
        <mxCell id="7YN3MFbd8wUG7k_bTS1g-49" value="*" style="text;html=1;align=center;verticalAlign=middle;resizable=0;points=[];autosize=1;strokeColor=none;fillColor=none;" parent="1" vertex="1">
          <mxGeometry x="460" y="464" width="30" height="30" as="geometry" />
        </mxCell>
        <mxCell id="7YN3MFbd8wUG7k_bTS1g-50" value="*" style="text;html=1;align=center;verticalAlign=middle;resizable=0;points=[];autosize=1;strokeColor=none;fillColor=none;" parent="1" vertex="1">
          <mxGeometry x="735" y="530" width="30" height="30" as="geometry" />
        </mxCell>
        <mxCell id="7YN3MFbd8wUG7k_bTS1g-51" value="removes" style="endArrow=none;html=1;rounded=0;" parent="1" source="7YN3MFbd8wUG7k_bTS1g-1" target="7YN3MFbd8wUG7k_bTS1g-16" edge="1">
          <mxGeometry width="50" height="50" relative="1" as="geometry">
            <mxPoint x="410" y="529" as="sourcePoint" />
            <mxPoint x="690" y="579" as="targetPoint" />
            <Array as="points">
              <mxPoint x="400" y="600" />
              <mxPoint x="720" y="600" />
            </Array>
          </mxGeometry>
        </mxCell>
        <mxCell id="7YN3MFbd8wUG7k_bTS1g-52" value="*" style="text;html=1;align=center;verticalAlign=middle;resizable=0;points=[];autosize=1;strokeColor=none;fillColor=none;" parent="1" vertex="1">
          <mxGeometry x="730" y="560" width="30" height="30" as="geometry" />
        </mxCell>
        <mxCell id="7YN3MFbd8wUG7k_bTS1g-53" value="belongs to" style="endArrow=none;html=1;rounded=0;" parent="1" source="7YN3MFbd8wUG7k_bTS1g-16" target="7YN3MFbd8wUG7k_bTS1g-5" edge="1">
          <mxGeometry width="50" height="50" relative="1" as="geometry">
            <mxPoint x="680" y="470" as="sourcePoint" />
            <mxPoint x="730" y="420" as="targetPoint" />
            <Array as="points">
              <mxPoint x="730" y="520" />
            </Array>
          </mxGeometry>
        </mxCell>
        <mxCell id="7YN3MFbd8wUG7k_bTS1g-54" value="1" style="text;html=1;align=center;verticalAlign=middle;resizable=0;points=[];autosize=1;strokeColor=none;fillColor=none;" parent="1" vertex="1">
          <mxGeometry x="630" y="494" width="30" height="30" as="geometry" />
        </mxCell>
        <mxCell id="7YN3MFbd8wUG7k_bTS1g-55" value="has" style="endArrow=none;html=1;rounded=0;" parent="1" source="7YN3MFbd8wUG7k_bTS1g-5" target="7YN3MFbd8wUG7k_bTS1g-16" edge="1">
          <mxGeometry width="50" height="50" relative="1" as="geometry">
            <mxPoint x="610" y="490" as="sourcePoint" />
            <mxPoint x="660" y="440" as="targetPoint" />
            <Array as="points">
              <mxPoint x="680" y="470" />
            </Array>
          </mxGeometry>
        </mxCell>
        <mxCell id="7YN3MFbd8wUG7k_bTS1g-56" value="*" style="text;html=1;align=center;verticalAlign=middle;resizable=0;points=[];autosize=1;strokeColor=none;fillColor=none;" parent="1" vertex="1">
          <mxGeometry x="735" y="480" width="30" height="30" as="geometry" />
        </mxCell>
        <mxCell id="7YN3MFbd8wUG7k_bTS1g-58" value="*" style="text;html=1;align=center;verticalAlign=middle;resizable=0;points=[];autosize=1;strokeColor=none;fillColor=none;" parent="1" vertex="1">
          <mxGeometry x="200" y="568" width="30" height="30" as="geometry" />
        </mxCell>
      </root>
    </mxGraphModel>
  </diagram>
</mxfile>
